<svg width="24" height="24" viewBox="0 0 24 24" fill="none" xmlns="http://www.w3.org/2000/svg">
<g clip-path="url(#clip0_52_45)">
<path d="M4 4H20C20.5304 4 21.0391 4.21071 21.4142 4.58579C21.7893 4.96086 22 5.46957 22 6V18C22 18.5304 21.7893 19.0391 21.4142 19.4142C21.0391 19.7893 20.5304 20 20 20H4C3.46957 20 2.96086 19.7893 2.58579 19.4142C2.21071 19.0391 2 18.5304 2 18V6C2 5.46957 2.21071 4.96086 2.58579 4.58579C2.96086 4.21071 3.46957 4 4 4ZM4 6V18H20V6H4ZM12 10.5C12.3978 10.5 12.7794 10.658 13.0607 10.9393C13.342 11.2206 13.5 11.6022 13.5 12C13.5 12.3978 13.342 12.7794 13.0607 13.0607C12.7794 13.342 12.3978 13.5 12 13.5C11.6022 13.5 11.2206 13.342 10.9393 13.0607C10.658 12.7794 10.5 12.3978 10.5 12C10.5 11.6022 10.658 11.2206 10.9393 10.9393C11.2206 10.658 11.6022 10.5 12 10.5Z" fill="#820AD1"/>
<path d="M17.9899 14.5H17.4899V15V18.3383L16.5758 17.4242L16.2222 17.0707L15.8687 17.4242L14.6464 18.6464L14.2929 19L14.6464 19.3536L18.6464 23.3536L19 23.7071L19.3536 23.3536L23.3536 19.3536L23.7071 19L23.3536 18.6464L22.1313 17.4242L21.7778 17.0707L21.4242 17.4242L20.5101 18.3383V15V14.5H20.0101H17.9899Z" fill="#820AD1" stroke="#E8E8F0"/>
</g>
<defs>
<clipPath id="clip0_52_45">
<rect width="24" height="24" fill="white"/>
</clipPath>
</defs>
</svg>
