<svg width="16" height="16" viewBox="0 0 16 16" fill="none" xmlns="http://www.w3.org/2000/svg">
<path d="M7.29329 4.05332C7.52714 4.01748 7.76339 3.99965 7.99996 3.99999C10.12 3.99999 12.1133 5.52666 13.2733 7.99999C13.0959 8.37639 12.8955 8.74152 12.6733 9.09332C12.6027 9.20253 12.5657 9.32998 12.5666 9.45999C12.5681 9.60548 12.6172 9.74649 12.7063 9.86151C12.7954 9.97652 12.9197 10.0592 13.0602 10.097C13.2007 10.1348 13.3497 10.1255 13.4845 10.0707C13.6193 10.0159 13.7324 9.91846 13.8066 9.79332C14.1172 9.30528 14.3871 8.79243 14.6133 8.25999C14.6491 8.17681 14.6675 8.08721 14.6675 7.99666C14.6675 7.90611 14.6491 7.81651 14.6133 7.73332C13.2666 4.60666 10.7333 2.66666 7.99996 2.66666C7.68707 2.66508 7.37468 2.69186 7.06663 2.74666C6.97908 2.76154 6.89532 2.79352 6.82013 2.84078C6.74494 2.88803 6.6798 2.94963 6.62842 3.02206C6.57704 3.09449 6.54042 3.17633 6.52067 3.26291C6.50092 3.34949 6.49841 3.43911 6.51329 3.52666C6.52818 3.61421 6.56016 3.69797 6.60741 3.77315C6.65467 3.84834 6.71627 3.91349 6.7887 3.96487C6.86112 4.01625 6.94297 4.05286 7.02955 4.07262C7.11612 4.09237 7.20575 4.09487 7.29329 4.07999V4.05332ZM2.47329 1.52666C2.41114 1.4645 2.33734 1.41519 2.25613 1.38155C2.17491 1.34791 2.08787 1.3306 1.99996 1.3306C1.91205 1.3306 1.82501 1.34791 1.74379 1.38155C1.66258 1.41519 1.58879 1.4645 1.52663 1.52666C1.40109 1.65219 1.33057 1.82246 1.33057 1.99999C1.33057 2.17753 1.40109 2.34779 1.52663 2.47332L3.59329 4.53332C2.65034 5.44101 1.89987 6.52932 1.38663 7.73332C1.34992 7.81744 1.33097 7.90822 1.33097 7.99999C1.33097 8.09176 1.34992 8.18255 1.38663 8.26666C2.73329 11.3933 5.26663 13.3333 7.99996 13.3333C9.19803 13.325 10.3678 12.9683 11.3666 12.3067L13.5266 14.4733C13.5886 14.5358 13.6623 14.5854 13.7436 14.6193C13.8248 14.6531 13.912 14.6705 14 14.6705C14.088 14.6705 14.1751 14.6531 14.2563 14.6193C14.3376 14.5854 14.4113 14.5358 14.4733 14.4733C14.5358 14.4113 14.5854 14.3376 14.6192 14.2564C14.6531 14.1751 14.6705 14.088 14.6705 14C14.6705 13.912 14.6531 13.8248 14.6192 13.7436C14.5854 13.6624 14.5358 13.5886 14.4733 13.5267L2.47329 1.52666ZM6.71329 7.65332L8.34663 9.28666C8.23395 9.31897 8.11717 9.33469 7.99996 9.33332C7.64634 9.33332 7.3072 9.19285 7.05715 8.9428C6.8071 8.69275 6.66663 8.35361 6.66663 7.99999C6.66526 7.88278 6.68098 7.766 6.71329 7.65332ZM7.99996 12C5.87996 12 3.88663 10.4733 2.73329 7.99999C3.16402 7.04916 3.77534 6.19104 4.53329 5.47332L5.71329 6.66666C5.43613 7.17252 5.33045 7.75462 5.41213 8.32563C5.49381 8.89664 5.75844 9.42577 6.16631 9.83364C6.57419 10.2415 7.10331 10.5061 7.67432 10.5878C8.24533 10.6695 8.82743 10.5638 9.33329 10.2867L10.3933 11.3333C9.66736 11.7606 8.84224 11.9904 7.99996 12Z" fill="white"/>
</svg>
