<svg width="16" height="16" viewBox="0 0 16 16" fill="none" xmlns="http://www.w3.org/2000/svg">
<path d="M14.6134 7.73334C13.2667 4.60667 10.7334 2.66667 8.00004 2.66667C5.26671 2.66667 2.73338 4.60667 1.38671 7.73334C1.35 7.81745 1.33105 7.90823 1.33105 8C1.33105 8.09178 1.35 8.18256 1.38671 8.26667C2.73338 11.3933 5.26671 13.3333 8.00004 13.3333C10.7334 13.3333 13.2667 11.3933 14.6134 8.26667C14.6501 8.18256 14.669 8.09178 14.669 8C14.669 7.90823 14.6501 7.81745 14.6134 7.73334ZM8.00004 12C5.88671 12 3.88671 10.4733 2.73338 8C3.88671 5.52667 5.88671 4 8.00004 4C10.1134 4 12.1134 5.52667 13.2667 8C12.1134 10.4733 10.1134 12 8.00004 12ZM8.00004 5.33334C7.47263 5.33334 6.95706 5.48974 6.51852 5.78275C6.07999 6.07577 5.7382 6.49225 5.53637 6.97952C5.33453 7.46678 5.28172 8.00296 5.38462 8.52025C5.48751 9.03753 5.74149 9.51268 6.11443 9.88562C6.48737 10.2586 6.96252 10.5125 7.4798 10.6154C7.99709 10.7183 8.53326 10.6655 9.02053 10.4637C9.5078 10.2618 9.92428 9.92006 10.2173 9.48152C10.5103 9.04299 10.6667 8.52742 10.6667 8C10.6667 7.29276 10.3858 6.61448 9.88566 6.11439C9.38557 5.61429 8.70729 5.33334 8.00004 5.33334ZM8.00004 9.33334C7.73634 9.33334 7.47855 9.25514 7.25928 9.10863C7.04002 8.96212 6.86912 8.75388 6.76821 8.51025C6.66729 8.26661 6.64088 7.99853 6.69233 7.73988C6.74378 7.48124 6.87077 7.24367 7.05724 7.0572C7.24371 6.87073 7.48128 6.74374 7.73992 6.69229C7.99857 6.64084 8.26665 6.66725 8.51029 6.76817C8.75392 6.86908 8.96216 7.03998 9.10867 7.25924C9.25518 7.47851 9.33338 7.7363 9.33338 8C9.33338 8.35363 9.1929 8.69276 8.94285 8.94281C8.6928 9.19286 8.35367 9.33334 8.00004 9.33334Z" fill="white"/>
</svg>
