<svg width="147" height="80" viewBox="0 0 147 80" fill="none" xmlns="http://www.w3.org/2000/svg">
<g clip-path="url(#clip0_57_3)">
<path d="M27.0695 7.63115C31.6651 2.81392 37.7612 0 44.923 0C58.8748 0 68.1251 10.1635 69.8948 25.3892C70.4686 30.3337 70.4634 37.3047 70.4576 45.379C70.4569 46.207 70.4564 47.0467 70.4564 47.897V78.1445H51.2698V55.7725C51.2698 55.7725 51.2308 36.6253 51.1135 33.0468C50.5986 17.4612 41.3509 7.66805 27.0675 7.65753C22.7581 12.2001 20.449 17.7543 20.1085 26.2467C20.0617 27.4312 20.0735 31.6298 20.089 37.1632C20.097 40.0303 20.1061 43.2558 20.1085 46.606C20.1227 61.1883 20.1085 78.1478 20.1085 78.1478H0.922096V43.7175C0.922096 42.5378 0.900547 41.348 0.878915 40.1535C0.835397 37.7507 0.791541 35.3295 0.922096 32.932C1.13887 28.9352 1.83184 25.0062 3.70108 21.3563C7.97973 12.9945 16.7467 7.61065 26.093 7.61065C26.4195 7.61065 26.7462 7.6175 27.0695 7.63115Z" fill="#820AD1"/>
<path d="M146.078 47.068C146.208 44.6705 146.165 42.249 146.121 39.8465C146.099 38.652 146.078 37.4622 146.078 36.2825V1.85216H126.892C126.892 1.85216 126.877 18.8117 126.892 33.3937C126.894 36.744 126.903 39.9692 126.911 42.8363C126.926 48.37 126.938 52.5685 126.892 53.753C126.551 62.2458 124.242 67.7998 119.933 72.3425C105.649 72.3318 96.4019 62.5385 95.8868 46.9533C95.7695 43.3747 95.7199 34.4945 95.7199 24.2095V1.83755L76.5477 1.85543V32.103C76.5477 32.9532 76.5469 33.7927 76.5464 34.621C76.5404 42.6953 76.5354 49.666 77.1092 54.6107C78.8752 69.8365 88.1254 80 102.077 80C109.239 80 115.335 77.186 119.931 72.3688C120.254 72.3825 120.581 72.3893 120.907 72.3893C130.253 72.3893 139.02 67.0055 143.299 58.6438C145.168 54.9935 145.861 51.0648 146.078 47.068Z" fill="#820AD1"/>
</g>
<defs>
<clipPath id="clip0_57_3">
<rect width="147" height="80" fill="white"/>
</clipPath>
</defs>
</svg>
