<svg width="24" height="24" viewBox="0 0 24 24" fill="none" xmlns="http://www.w3.org/2000/svg">
<g clip-path="url(#clip0_52_24)">
<path fill-rule="evenodd" clip-rule="evenodd" d="M18.4253 18.3702C17.4839 18.3702 16.5986 18.0041 15.9327 17.338L12.3201 13.7255C12.0681 13.4735 11.6276 13.4726 11.3746 13.7255L7.77534 17.3248C7.10929 17.9908 6.22401 18.357 5.28257 18.357H4.84912L9.42042 22.9282C10.8442 24.352 13.1523 24.352 14.5761 22.9282L19.1342 18.3702H18.4253ZM13.5011 21.8542C13.1003 22.2541 12.5669 22.4753 11.9988 22.4753H11.9978C11.4297 22.4753 10.8952 22.254 10.4955 21.8542L7.83042 19.1892C8.19956 18.9729 8.54128 18.7088 8.85032 18.3998L11.8479 15.4022L14.8587 18.413C15.2167 18.7721 15.6175 19.0699 16.0529 19.3014L13.5011 21.8542V21.8542ZM14.5762 1.06781C13.1524 -0.355968 10.8443 -0.355968 9.42051 1.06781L4.84926 5.63906H5.28271C6.22406 5.63906 7.10943 6.00628 7.77543 6.67125L11.3747 10.2705C11.6358 10.5327 12.0601 10.5316 12.3202 10.2705L15.9328 6.65798C16.5987 5.99297 17.484 5.6258 18.4254 5.6258H19.1343L14.5762 1.06781ZM14.8588 5.58403L11.848 8.59481L8.84939 5.59622C8.54034 5.28722 8.1997 5.02406 7.83051 4.80788L10.4955 2.14177C11.3247 1.31466 12.6741 1.31358 13.5012 2.14177L16.053 4.69462C15.6175 4.92717 15.2167 5.22502 14.8587 5.58403H14.8588Z" fill="#820AD1"/>
<path fill-rule="evenodd" clip-rule="evenodd" d="M22.9289 9.42047L20.1924 6.68405H18.4249C17.7762 6.68405 17.1408 6.94819 16.6818 7.40714L13.0693 11.0198C12.7317 11.3563 12.2901 11.5246 11.8474 11.5246C11.4048 11.5246 10.9622 11.3563 10.6256 11.0198L7.02626 7.42046C6.56726 6.96043 5.93191 6.69732 5.28218 6.69732H3.79109L1.06784 9.42047C-0.355945 10.8443 -0.355945 13.1524 1.06784 14.5762L3.79104 17.2984L5.28213 17.2994C5.93182 17.2994 6.56726 17.0352 7.02626 16.5763L10.6255 12.978C11.2782 12.3242 12.4165 12.3253 13.0692 12.977L16.6818 16.5895C17.1408 17.0485 17.7761 17.3116 18.4248 17.3116H20.1923L22.9288 14.5762C24.3526 13.1524 24.3526 10.8443 22.9288 9.42047H22.9289ZM5.95123 15.5013C5.77484 15.6788 5.53207 15.7786 5.28218 15.7786H4.42043L2.14277 13.5022C1.3136 12.673 1.3136 11.3236 2.14277 10.4955L4.42034 8.217H5.28213C5.53202 8.217 5.77479 8.31797 5.95221 8.49441L9.45565 11.9978L5.95123 15.5013ZM21.8539 13.5022L19.5641 15.793H18.4248C18.176 15.793 17.9323 15.692 17.7568 15.5155L14.2401 11.9978L17.7568 8.48114C17.9323 8.30471 18.176 8.20374 18.4249 8.20374H19.5641L21.8538 10.4955C22.2557 10.8963 22.476 11.4297 22.476 11.9978C22.476 12.567 22.2557 13.1003 21.8538 13.5022H21.8539Z" fill="#820AD1"/>
</g>
<defs>
<clipPath id="clip0_52_24">
<rect width="24" height="24" fill="white"/>
</clipPath>
</defs>
</svg>
