<svg width="24" height="24" viewBox="0 0 24 24" fill="none" xmlns="http://www.w3.org/2000/svg">
<path d="M19.63 3.65C19.5138 3.55602 19.3781 3.48928 19.2327 3.45467C19.0873 3.42006 18.9361 3.41846 18.79 3.45C17.7214 3.67395 16.6183 3.6768 15.5486 3.45839C14.4789 3.23997 13.4653 2.80492 12.57 2.18C12.4026 2.06388 12.2037 2.00165 12 2.00165C11.7963 2.00165 11.5974 2.06388 11.43 2.18C10.5348 2.80492 9.52108 3.23997 8.45137 3.45839C7.38166 3.6768 6.27857 3.67395 5.21001 3.45C5.06394 3.41846 4.91267 3.42006 4.76731 3.45467C4.62194 3.48928 4.48618 3.55602 4.37001 3.65C4.25399 3.74412 4.16053 3.86304 4.0965 3.99802C4.03247 4.133 3.9995 4.28061 4.00001 4.43V11.88C3.99912 13.3138 4.34078 14.727 4.99654 16.002C5.6523 17.277 6.60319 18.3768 7.77001 19.21L11.42 21.81C11.5894 21.9306 11.7921 21.9954 12 21.9954C12.2079 21.9954 12.4106 21.9306 12.58 21.81L16.23 19.21C17.3968 18.3768 18.3477 17.277 19.0035 16.002C19.6592 14.727 20.0009 13.3138 20 11.88V4.43C20.0005 4.28061 19.9675 4.133 19.9035 3.99802C19.8395 3.86304 19.746 3.74412 19.63 3.65ZM18 11.88C18.0008 12.9948 17.7353 14.0936 17.2257 15.085C16.716 16.0765 15.977 16.9319 15.07 17.58L12 19.77L8.93001 17.58C8.02304 16.9319 7.28399 16.0765 6.77435 15.085C6.26472 14.0936 5.99924 12.9948 6.00001 11.88V5.58C8.09643 5.75944 10.196 5.27303 12 4.19C13.804 5.27303 15.9036 5.75944 18 5.58V11.88Z" fill="#323232"/>
</svg>
