<svg width="24" height="24" viewBox="0 0 24 24" fill="none" xmlns="http://www.w3.org/2000/svg">
<g clip-path="url(#clip0_52_38)">
<path d="M4 4H20C20.5304 4 21.0391 4.21071 21.4142 4.58579C21.7893 4.96086 22 5.46957 22 6V18C22 18.5304 21.7893 19.0391 21.4142 19.4142C21.0391 19.7893 20.5304 20 20 20H4C3.46957 20 2.96086 19.7893 2.58579 19.4142C2.21071 19.0391 2 18.5304 2 18V6C2 5.46957 2.21071 4.96086 2.58579 4.58579C2.96086 4.21071 3.46957 4 4 4ZM4 6V18H20V6H4ZM12 10.5C12.3978 10.5 12.7794 10.658 13.0607 10.9393C13.342 11.2206 13.5 11.6022 13.5 12C13.5 12.3978 13.342 12.7794 13.0607 13.0607C12.7794 13.342 12.3978 13.5 12 13.5C11.6022 13.5 11.2206 13.342 10.9393 13.0607C10.658 12.7794 10.5 12.3978 10.5 12C10.5 11.6022 10.658 11.2206 10.9393 10.9393C11.2206 10.658 11.6022 10.5 12 10.5Z" fill="#820AD1"/>
<path d="M20.0101 23.5H20.5101V23V19.6617L21.4242 20.5758L21.7778 20.9293L22.1313 20.5758L23.3536 19.3536L23.7071 19L23.3536 18.6464L19.3536 14.6464L19 14.2929L18.6464 14.6464L14.6464 18.6464L14.2929 19L14.6464 19.3536L15.8687 20.5758L16.2222 20.9293L16.5758 20.5758L17.4899 19.6617V23V23.5H17.9899H20.0101Z" fill="#820AD1" stroke="#E8E8F0"/>
</g>
<defs>
<clipPath id="clip0_52_38">
<rect width="24" height="24" fill="white"/>
</clipPath>
</defs>
</svg>
